<svg xmlns="http://www.w3.org/2000/svg" xmlns:xlink="http://www.w3.org/1999/xlink" version="1.1" x="0px" y="0px" viewBox="0 0 100 125" style="enable-background:new 0 0 100 100;" xml:space="preserve"><path class="st0" d="M67.8,73.3L26.7,32.2c-1.5-1.5-1.5-4,0-5.5l0,0c1.5-1.5,4-1.5,5.5,0l41.1,41.1c1.5,1.5,1.5,4,0,5.5l0,0   C71.8,74.9,69.3,74.9,67.8,73.3z"/><path class="st0" d="M26.7,67.8l41.1-41.1c1.5-1.5,4-1.5,5.5,0l0,0c1.5,1.5,1.5,4,0,5.5L32.2,73.3c-1.5,1.5-4,1.5-5.5,0l0,0   C25.1,71.8,25.1,69.3,26.7,67.8z"/></svg>