<svg fill="#fff" xmlns="http://www.w3.org/2000/svg" xmlns:xlink="http://www.w3.org/1999/xlink" version="1.1" x="0px" y="0px" viewBox="0 0 100 100" enable-background="new 0 0 100 100" xml:space="preserve"><path d="M92.636,59.5c-20.558,0-41.119,0-61.677,0c-2.37,0-2.37,3.671,0,3.671c20.558,0,41.119,0,61.677,0  C95.006,63.17,95.006,59.5,92.636,59.5L92.636,59.5z"/><path d="M97.289,49.044c-19.01,0-38.021,0-57.03,0c-2.276,0-2.276,3.531,0,3.531c19.008,0,38.02,0,57.03,0  C99.563,52.575,99.563,49.044,97.289,49.044L97.289,49.044z"/><path d="M86.028,38.695c-20.559,0-41.119,0-61.678,0c-2.369,0-2.369,3.67,0,3.67c20.559,0,41.119,0,61.678,0  C88.396,42.367,88.396,38.695,86.028,38.695L86.028,38.695z"/><path d="M28.754,79.691c-8.907,0-16.154-7.247-16.154-16.154c0-0.508,0.052-0.958,0.118-1.367C6.297,59.959,1.83,53.851,1.83,46.895  c0-8.909,7.247-16.155,16.155-16.155c0.514,0,1.028,0.023,1.539,0.072c1.185-7.696,7.718-13.411,15.838-13.411  c7.641,0,14.298,5.426,15.826,12.901c0.228,1.125-0.496,2.226-1.622,2.456c-1.123,0.227-2.229-0.496-2.458-1.624  c-1.133-5.547-6.074-9.571-11.749-9.571c-6.655,0-11.868,5.173-11.868,11.777c0,0.69-0.341,1.337-0.915,1.725  c-0.571,0.386-1.298,0.465-1.939,0.209l-0.41-0.164c-0.735-0.139-1.489-0.21-2.244-0.21c-6.613,0-11.992,5.379-11.992,11.994  c0,5.718,4.064,10.666,9.664,11.767c0.617,0.12,1.145,0.516,1.439,1.067c0.293,0.557,0.32,1.215,0.074,1.793l-0.177,0.414  c-0.023,0.124-0.048,0.246-0.071,0.367c-0.09,0.468-0.162,0.838-0.162,1.234c0,6.613,5.379,11.992,11.992,11.992  c4.884,0,9.24-2.916,11.099-7.434c0.435-1.063,1.652-1.571,2.715-1.134s1.571,1.653,1.133,2.716  C41.2,75.762,35.333,79.691,28.754,79.691z"/></svg>