<svg fill="#ffffff" xmlns="http://www.w3.org/2000/svg" xmlns:xlink="http://www.w3.org/1999/xlink" version="1.1" x="0px" y="0px" viewBox="0 0 100 100" enable-background="new 0 0 100 100" xml:space="preserve"><g display="none"><rect x="-867.879" y="-45.155" display="inline" fill="#ffffff" width="1286.936" height="912.422"/></g><g><path d="M51.741,37.36V26.977l0.341-0.115c3.522-1.183,5.889-4.466,5.889-8.171c0-4.756-3.869-8.625-8.625-8.625   s-8.625,3.869-8.625,8.625c0,3.705,2.366,6.989,5.889,8.171l0.341,0.115V37.36H51.741z M45.512,18.69   c0-2.114,1.72-3.834,3.834-3.834s3.834,1.72,3.834,3.834s-1.72,3.834-3.834,3.834S45.512,20.805,45.512,18.69z"/><path d="M66.866,10.105l-3.768,2.979c0.94,1.417,3.603,6.252,0.012,11.221l3.759,2.974C71.854,20.569,69.218,13.375,66.866,10.105z   "/><path d="M70.163,27.861l3.875,2.817c6.52-9.392,3.018-19.51-0.002-23.974L70.148,9.53C71.341,11.45,75.777,19.67,70.163,27.861z"/><path d="M33.131,27.279l3.759-2.973c-3.594-4.966-0.965-9.761,0.022-11.235l-3.777-2.967   C30.783,13.373,28.145,20.568,33.131,27.279z"/><path d="M29.837,27.861c-5.677-8.27-1.205-16.413,0.018-18.341l-3.891-2.816c-3.02,4.465-6.521,14.583-0.002,23.975L29.837,27.861z   "/><path fill="#ffffff" d="M39.622,73.372c4.149,0,7.525-3.375,7.525-7.525c0-4.15-3.376-7.526-7.525-7.526s-7.524,3.376-7.524,7.526   C32.098,69.996,35.473,73.372,39.622,73.372z M39.622,62.075c2.08,0,3.772,1.692,3.772,3.772c0,2.08-1.692,3.771-3.772,3.771   s-3.772-1.692-3.772-3.771C35.85,63.767,37.542,62.075,39.622,62.075z"/><path fill="#ffffff" d="M60.376,73.372c4.149,0,7.525-3.375,7.525-7.525c0-4.15-3.376-7.526-7.525-7.526   c-4.148,0-7.523,3.376-7.523,7.526C52.853,69.996,56.228,73.372,60.376,73.372z M60.376,62.075c2.081,0,3.773,1.692,3.773,3.772   c0,2.08-1.692,3.771-3.773,3.771c-2.079,0-3.771-1.692-3.771-3.771C56.605,63.767,58.297,62.075,60.376,62.075z"/><path d="M83.89,52.16H80.94c-0.22,0-0.438,0.008-0.658,0.036l-0.563,0.071V40.36H20.27v11.911l-0.565-0.075   c-0.208-0.027-0.427-0.036-0.645-0.036H16.11c-3.54,0-6.42,2.88-6.42,6.42v14.54c0,3.534,2.88,6.41,6.42,6.41h2.949   c0.226,0,0.451-0.009,0.667-0.028l0.543-0.047V94.5h59.45V79.457l0.542,0.045c0.226,0.019,0.452,0.028,0.679,0.028h2.949   c3.54,0,6.42-2.875,6.42-6.41V58.58C90.31,55.04,87.43,52.16,83.89,52.16z M20.14,73.12c0,0.585-0.494,1.08-1.08,1.08H16.11   c-0.596,0-1.08-0.484-1.08-1.08V58.58c0-0.596,0.484-1.08,1.08-1.08h2.949c0.586,0,1.08,0.495,1.08,1.08V73.12z M36.38,89.5h-9.82   v-8.28h9.82V89.5z M48.73,89.5h-9.82v-8.28h9.82V89.5z M61.09,89.5h-9.82v-8.28h9.82V89.5z M73.44,81.225V89.5h-9.82v-8.28h9.82   V81.225z M74.39,78.69H25.61V45.7H74.39V78.69z M84.97,73.12c0,0.585-0.494,1.08-1.08,1.08H80.94c-0.586,0-1.08-0.495-1.08-1.08   V58.58c0-0.596,0.484-1.08,1.08-1.08h2.949c0.586,0,1.08,0.495,1.08,1.08V73.12z"/></g></svg>