<?xml version="1.0" encoding="utf-8"?>
<!-- Generator: Adobe Illustrator 15.0.2, SVG Export Plug-In . SVG Version: 6.00 Build 0)  -->
<!DOCTYPE svg PUBLIC "-//W3C//DTD SVG 1.1//EN" "http://www.w3.org/Graphics/SVG/1.1/DTD/svg11.dtd">
<svg version="1.1" id="Ebene_1" xmlns="http://www.w3.org/2000/svg" xmlns:xlink="http://www.w3.org/1999/xlink" x="0px" y="0px"
	 width="1190.55px" height="841.891px" viewBox="0 0 1190.55 841.891" enable-background="new 0 0 1190.55 841.891"
	 xml:space="preserve">
<g display="none">
	<rect x="-5586.751" y="-304.125" display="inline" width="8667.671" height="6145.273"/>
</g>
<g>
	<path d="M587.714,306.604v-39.419l1.295-0.437c13.37-4.492,22.356-16.955,22.356-31.021c0-18.056-14.688-32.745-32.744-32.745
		c-18.056,0-32.745,14.688-32.745,32.745c0,14.066,8.982,26.534,22.357,31.021l1.295,0.437v39.419H587.714z M564.066,235.723
		c0-8.026,6.529-14.556,14.556-14.556c8.025,0,14.556,6.53,14.556,14.556s-6.53,14.556-14.556,14.556
		C570.595,250.279,564.066,243.752,564.066,235.723z"/>
	<path d="M645.135,203.13l-14.305,11.31c3.568,5.379,13.678,23.735,0.045,42.601l14.271,11.291
		C664.073,242.856,654.065,215.544,645.135,203.13z"/>
	<path d="M657.653,270.541l14.711,10.695c24.754-35.657,11.458-74.07-0.008-91.017l-14.76,10.729
		C662.125,208.236,678.966,239.444,657.653,270.541z"/>
	<path d="M517.062,268.331l14.271-11.287c-13.645-18.853-3.664-37.058,0.083-42.654l-14.339-11.264
		C508.147,215.537,498.132,242.853,517.062,268.331z"/>
	<path d="M504.556,270.541c-21.553-31.397-4.575-62.312,0.068-69.631l-14.772-10.691c-11.466,16.951-24.757,55.364-0.008,91.021
		L504.556,270.541z"/>
	<path d="M541.705,443.322c15.751,0,28.568-12.813,28.568-28.568c0-15.755-12.817-28.572-28.568-28.572
		c-15.752,0-28.565,12.817-28.565,28.572C513.14,430.506,525.953,443.322,541.705,443.322z M541.705,400.434
		c7.896,0,14.32,6.424,14.32,14.32s-6.424,14.316-14.32,14.316c-7.897,0-14.321-6.424-14.321-14.316
		C527.384,406.857,533.808,400.434,541.705,400.434z"/>
	<path d="M620.497,443.322c15.752,0,28.568-12.813,28.568-28.568c0-15.755-12.816-28.572-28.568-28.572
		c-15.747,0-28.561,12.817-28.561,28.572C591.936,430.506,604.75,443.322,620.497,443.322z M620.497,400.434
		c7.9,0,14.324,6.424,14.324,14.32s-6.424,14.316-14.324,14.316c-7.893,0-14.316-6.424-14.316-14.316
		C606.18,406.857,612.604,400.434,620.497,400.434z"/>
	<path d="M709.768,362.792h-11.2c-0.836,0-1.663,0.03-2.498,0.137l-2.138,0.27v-45.205H468.234v45.22l-2.145-0.285
		c-0.79-0.103-1.621-0.137-2.449-0.137h-11.199c-13.44,0-24.374,10.934-24.374,24.373v55.201c0,13.418,10.934,24.336,24.374,24.336
		h11.196c0.858,0,1.712-0.033,2.532-0.105l2.062-0.18v57.119h225.701v-57.111l2.057,0.172c0.859,0.072,1.717,0.105,2.579,0.105
		h11.196c13.438,0,24.373-10.915,24.373-24.336v-55.201C734.141,373.726,723.208,362.792,709.768,362.792z M467.741,442.365
		c0,2.222-1.875,4.102-4.101,4.102h-11.199c-2.263,0-4.101-1.838-4.101-4.102v-55.201c0-2.262,1.838-4.1,4.101-4.1h11.196
		c2.225,0,4.1,1.879,4.1,4.1v55.201H467.741z M529.396,504.553h-37.282v-31.436h37.282V504.553z M576.283,504.553h-37.282v-31.436
		h37.282V504.553z M623.208,504.553h-37.282v-31.436h37.282V504.553z M670.094,473.137v31.416h-37.281v-31.436h37.281V473.137z
		 M673.701,463.512H488.508V338.266h185.193V463.512z M713.868,442.365c0,2.222-1.877,4.102-4.1,4.102h-11.2
		c-2.226,0-4.101-1.88-4.101-4.102v-55.201c0-2.262,1.838-4.1,4.101-4.1h11.196c2.225,0,4.1,1.879,4.1,4.1v55.201H713.868z"/>
</g>
<text transform="matrix(1 0 0 1 141.7749 667.4453)" font-family="'Avenir-Heavy'" font-size="150">ROBOTOPIA</text>
</svg>
