<svg xmlns="http://www.w3.org/2000/svg" xmlns:xlink="http://www.w3.org/1999/xlink" version="1.1" x="0px" y="0px" viewBox="0 0 100 125" enable-background="new 0 0 100 100" xml:space="preserve"><path fill="#000000" d="M73.038,27.787c-2.369,0.001-4.565,1.003-6.528,2.025c-1.969,1.029-3.739,2.288-5.358,3.652  c-3.245,2.735-5.969,5.851-8.459,9.08c-2.483,3.238-4.715,6.614-6.793,10.068c-1.013,1.69-1.987,3.403-2.926,5.137  c-1.244-0.912-6.843-7.369-15.522-7.631c-4.006-0.121-3.256,2.929-0.882,4.042c9.558,4.479,11.138,11.441,14.1,15.839  c2.714,4.028,8.401,2.174,9.935-2.448c0.25-0.753,0.491-1.714,0.761-2.582c0.279-0.886,0.57-1.774,0.874-2.661  c0.605-1.773,1.253-3.538,1.94-5.288c1.377-3.496,2.907-6.933,4.659-10.23c1.755-3.29,3.725-6.462,6.089-9.244  c2.358-2.747,5.288-5.018,8.601-6.14C75.516,30.73,76.633,27.785,73.038,27.787z"/></svg>